<?xml version="1.0" encoding="utf-8"?>
<!-- Generator: Adobe Illustrator 18.0.0, SVG Export Plug-In . SVG Version: 6.00 Build 0)  -->
<!DOCTYPE svg PUBLIC "-//W3C//DTD SVG 1.1//EN" "http://www.w3.org/Graphics/SVG/1.1/DTD/svg11.dtd">
<svg version="1.1" xmlns="http://www.w3.org/2000/svg" xmlns:xlink="http://www.w3.org/1999/xlink" x="0px" y="0px"
	 viewBox="0 0 30 30" enable-background="new 0 0 30 30" xml:space="preserve">
<g id="Background_xA0_Image_1_">
</g>
<g id="Row_1_1_">
	<g>
		<g>
			<path fill="#FFFFFF" d="M8.3,3.7c0,1.4-0.9,2.6-2.7,2.6C4,6.3,3,5.2,3,3.7C3,2.3,4,1,5.7,1S8.3,2.2,8.3,3.7z M3,25V7.7h5.3V25H3z
				"/>
			<path fill="#FFFFFF" d="M11,13.6c0-2.1-0.1-3.8-0.1-5.3h4.8l0.2,2.3H16C16.7,9.5,18.3,8,21.1,8c3.4,0,5.9,2.3,5.9,7.1V25h-5.3
				v-9.1c0-2.1-0.8-3.7-2.7-3.7c-1.4,0-2.1,1.1-2.5,2.1c-0.1,0.3-0.2,0.8-0.2,1.3V25H11V13.6z"/>
		</g>
	</g>
</g>
</svg>
